<?xml version="1.0" encoding="utf-8"?>
<!-- Generator: Adobe Illustrator 24.1.2, SVG Export Plug-In . SVG Version: 6.00 Build 0)  -->
<svg version="1.1" id="Capa_1" xmlns="http://www.w3.org/2000/svg" xmlns:xlink="http://www.w3.org/1999/xlink" x="0px" y="0px"
	 viewBox="0 0 165.1 165" style="enable-background:new 0 0 165.1 165;" xml:space="preserve">
<style type="text/css">
	.st0{fill:#FFFFFF;}
	.st1{fill-rule:evenodd;clip-rule:evenodd;fill:#FF671D;stroke:#FF671D;stroke-miterlimit:10;}
</style>
<ellipse class="st0" cx="82.7" cy="82.9" rx="81.6" ry="81.8"/>
<path class="st1" d="M86.7,50l-3.5-0.8l-2.2,1l-13.8-1.8l-1.8,1.5l-1.8,3.9l-2.4,0.9l0.2,1.7l-3.2,4.5l-1.9,1.7l0.6,0.7l-6,6.4
	l-4.1,2.8l-0.7,3l-3,0.8l-0.6,1l8.9,1.6l15.1,0.7l2.9,1.9l1.7,0.4l-0.5-2.3l9.6-0.3l3.8,0.4l6.6-1.5l10.3-1.7l9.3-3l5-4.1l-1.4-1.4
	l1.3-0.7l1.5-1.3l-4.3-4.8l-4.7-2.3l-3.2-1.7l-3.8-0.6l-4.4-2.8l-6.7-2.2l-1.1,0.2L86.7,50z M82.5,0.5c45.3,0,82,36.7,82.1,81.9
	c0,14.9-4.1,29.6-11.8,42.4l-8.8-4.6l-6-1.4l-7.6-6.9l-14.7-5.3l-5.7-1.9l-3.4-3.1l-2.7-0.3l-1.4-0.8l-4.4-0.7l-6.6-4.4L74,88.7
	l-5.5-3.1l0.7-0.8h8.6l3,0.2l3.7-1.2l1.4,1l6.3-1.2l4.8,0.2l3.1-2l3.6,0.4h3.9l3.4-2.9l6.4-1.6l3.5,1.1l5.7-1.4l0.1-0.5l10.1-6.5
	l1.8-3.9l-0.8-0.1l-1.6-1l0.7-1.5l-2.7-0.2l-1.4-1.2l0.3-1l-3.4-4.7l-4.1-1.6l-6.3-3.2l-8-1.6l-3.5-1.4l-13-4.2l-13.5-2.2l-1.5,0.1
	l-5.4-0.8l-9.7-2l-2.1,0.6l-12.1-1H39.4L36,40.2l-0.6,1.5L34,40.8l-5.5-1l-1.1,0.8l-4.9-0.7l-8.8,1l-2.2,0.6
	C26,16.2,53.2,0.5,82.5,0.5z M150.4,128.7l-10.2-4l-3.5-0.9l-1.3-1.5l-2.8-0.2l-1.2,0.2l2.3,1.2l-0.7,1.4l2.3,1.7l-0.1,1l-1.4,0.3
	l-11.9-5.8l-1.3-1.4l0.5-0.4l0.9-0.3l1.7,0.4l3.8,2.2l-0.7-2.3l-2.6-2.9l-4.4-1l-1-2l-6.5-2.3l-0.9-0.7l-2.3-0.6l-0.6,1l0.6,0.6
	l4.4,1.2l2,1.6l7.3,3.4l-0.1,0.6l-2.4,0.5l-10.6-2.2l-5.4-4.8l-10.8-4.4l-5.3-0.8l-3.8-2.2l-8.7-3.9l-4.6-1.7l-8.8-3.3l-2.9-1.3
	l-12.6-4.4l-5.3-0.8L40.1,89L35,89.3l-3.7,3.8L23,103.8l-1.6,3.2l-3.6,6.2l-5.2,10.4h-1.1c22.7,39.2,72.9,52.5,112.1,29.8
	c9.3-5.4,17.5-12.6,24-21.1l-8.8-3.3l-3.6-0.6l0.7-1.3l1.7,0.4l-0.5-1.1l1.2-0.4l10.8,4.3C149.5,129.8,149.9,129.2,150.4,128.7
	L150.4,128.7z M1,91.8h0.6L5.1,89l2.1-1.1l5.4-1.1l2,1.2l3-1.5L18,84l-0.8-0.8l-3.9-1.5l-0.8-0.8l4.5-3.1l4.9-0.4l3.6-2.9L34.4,64
	l2.1-2.3l-0.2-1.5l4.1-4.3l1.8-5.9l-1.8-0.5l-1.4-1l-6.2-2.3l-12-0.8l-8.7,2.7l-3,2l-2.6,1.4c-4,9.8-6,20.4-6,31
	C0.5,85.6,0.7,88.7,1,91.8z"/>
</svg>
